<svg xmlns="http://www.w3.org/2000/svg" xmlns:xlink="http://www.w3.org/1999/xlink" viewBox="0 0 70 70"><defs><mask id="a" x="0" y="0" width="106" height="106" maskUnits="userSpaceOnUse"><path d="M6.06,0H98.43C104.49,0,106,1.51,106,7.57V98.43c0,6.06-1.51,7.57-7.57,7.57H6.06C1.51,106,0,104.49,0,98.43V7.57C0,1.51,1.51,0,6.06,0Z" style="fill:#fff;fill-rule:evenodd"/></mask><mask id="b" x="2.06" y="4.96" width="33.47" height="20.92" maskUnits="userSpaceOnUse"><rect x="2.84" y="5" width="32" height="20.85" rx="0.66" style="fill:#fff"/></mask><symbol id="c" viewBox="0 0 106 106"><g style="mask:url(#a)"><path d="M0,0H106V106H0Z" style="fill:#5a5a64;fill-rule:evenodd"/><path d="M6.06,1.51H98.43q6.06,0,7.57,3V0H0V4.54Q1.52,1.51,6.06,1.51Z" style="fill:#fff;fill-opacity:0.382999986410141;fill-rule:evenodd"/><path d="M6.06,104.49H98.43q6.06,0,7.57-4.55V106H0V99.94Q1.52,104.49,6.06,104.49Z" style="fill-opacity:0.382999986410141;fill-rule:evenodd"/><path d="M70.38,104.49H6.06C3,104.49,0,103,0,98.43V61.28L28.77,19.69H59.06a77.33,77.33,0,0,0,21.2,13.87c.07,11.31.07,4.86,0,16.17h3.12l.21,36.82Z" style="fill:#393939;fill-rule:evenodd;isolation:isolate;opacity:0.324000000953674"/><g style="opacity:0.30000000000000004"><path d="M68.77,58.54H76c.76,0,1,.12,1,.46v2.45c0,.31-.24.43-.93.43H61.44c-.66,0-.92-.12-.92-.42,0-.83,0-1.67,0-2.51,0-.29.26-.4.92-.41Z"/><path d="M64.33,77.42c.42.39.76.66,1,1a.89.89,0,0,1,0,1.31.92.92,0,0,1-1.32,0,4.25,4.25,0,0,1-.48-.47c-.14-.15-.26-.31-.49-.6-.32.37-.54.66-.79.91-.53.53-1.08.58-1.5.15s-.36-.94.15-1.45c.26-.26.54-.5.91-.83-.38-.34-.72-.61-1-.91a.9.9,0,0,1,0-1.36.91.91,0,0,1,1.36,0c.29.28.54.6.93,1A12.1,12.1,0,0,1,64,75.18a.91.91,0,0,1,1.36,0,.87.87,0,0,1,0,1.31C65.07,76.79,64.73,77.06,64.33,77.42Z"/><path d="M62.13,66.9c0-.47,0-.88,0-1.28a.92.92,0,0,1,.92-1,.91.91,0,0,1,1,1c0,.41,0,.81,0,1.3h1.14a1.16,1.16,0,0,1,1.22,1c0,.55-.42.85-1.18.86H64.12c0,.49,0,.91,0,1.34a.94.94,0,1,1-1.88,0c0-.41,0-.81,0-1.3H60.92a.94.94,0,1,1,0-1.88C61.3,66.89,61.68,66.9,62.13,66.9Z"/><path d="M74.31,76H72.23c-.67,0-1-.34-1-.93a.89.89,0,0,1,1-1q2.18,0,4.35,0a1,1,0,1,1,0,1.91c-.74,0-1.47,0-2.21,0Z"/><path d="M74.28,68.61c-.71,0-1.43,0-2.14,0a.86.86,0,0,1-1-.9.85.85,0,0,1,.92-1c1.5,0,3,0,4.48,0a.93.93,0,0,1,1,1,.91.91,0,0,1-1,.91c-.75,0-1.51,0-2.27,0Z"/><path d="M74.36,78.09c.72,0,1.44,0,2.15,0a1,1,0,0,1,1,1c0,.57-.38.93-1,.94H72.28c-.75,0-1.09-.32-1.09-.94s.37-1,1.09-1,1.39,0,2.08,0Z"/><path d="M81.29,90.55H56.14a4,4,0,0,1-4-4V53.73a4,4,0,0,1,4-4H81.29a4,4,0,0,1,4,4V86.55A4,4,0,0,1,81.29,90.55ZM56.14,53.73V86.55H81.29V53.73Z"/><path d="M43.49,83.26H31.8V25.71H56v10.6q0,4.55,4.54,4.55H75.71v5.78h4.55V34.8c-4.55-3-16.66-12.11-19.69-13.63H30.29a2.68,2.68,0,0,0-3,3V84.77a2.68,2.68,0,0,0,3,3H48.45V83.26ZM60.57,25.71l15.14,10.6H60.57Z"/></g><path d="M60.57,18.68H30.29a2.68,2.68,0,0,0-3,3V82.28a2.68,2.68,0,0,0,3,3H48.45V80.77H31.8V23.22H56v10.6q0,4.55,4.54,4.55H75.71v5.78h4.55V32.31C75.71,29.28,63.6,20.2,60.57,18.68Zm0,15.14V23.22l15.14,10.6Z" style="fill:#a8a9ab"/><path d="M68.77,55.78H76c.76,0,1,.13,1,.53v2.85c0,.37-.24.5-.93.5q-7.3,0-14.61,0c-.66,0-.92-.14-.92-.48,0-1,0-2,0-2.93,0-.34.26-.47.92-.47Z" style="fill:#a8a9ab"/><path d="M64.33,76.53c.42.38.76.65,1,1a.89.89,0,0,1,0,1.31.92.92,0,0,1-1.32,0,5.44,5.44,0,0,1-.48-.48c-.14-.14-.26-.31-.49-.59-.32.36-.54.65-.79.91-.53.53-1.08.57-1.5.14s-.36-.94.15-1.45c.26-.26.54-.49.91-.82-.38-.35-.72-.61-1-.92a.9.9,0,0,1,0-1.36.92.92,0,0,1,1.36,0c.29.28.54.61.93,1A13.78,13.78,0,0,1,64,74.28a.91.91,0,0,1,1.36,0,.88.88,0,0,1,0,1.32C65.07,75.89,64.73,76.16,64.33,76.53Z" style="fill:#a8a9ab"/><path d="M62.13,65.88c0-.48,0-.88,0-1.29a1,1,0,1,1,1.91,0c0,.4,0,.81,0,1.3h1.14a1.15,1.15,0,0,1,1.22,1c0,.54-.42.85-1.18.85H64.12c0,.49,0,.92,0,1.34a.94.94,0,1,1-1.88,0c0-.4,0-.81,0-1.3H60.92a.94.94,0,1,1,0-1.88Z" style="fill:#a8a9ab"/><path d="M74.31,75.11c-.69,0-1.38,0-2.08,0s-1-.35-1-.94a.89.89,0,0,1,1-1q2.18,0,4.35,0a.91.91,0,0,1,1,1,.93.93,0,0,1-1,1c-.74,0-1.47,0-2.21,0Z" style="fill:#a8a9ab"/><path d="M74.28,67.76H72.14a.87.87,0,0,1-1-.9.84.84,0,0,1,.92-1c1.5,0,3,0,4.48,0a.94.94,0,0,1,1,1,.91.91,0,0,1-1,.91H74.28Z" style="fill:#a8a9ab"/><path d="M74.36,77.2c.72,0,1.44,0,2.15,0a1,1,0,0,1,1,1c0,.56-.38.93-1,.93q-2.12,0-4.23,0c-.75,0-1.09-.32-1.09-.94s.37-.94,1.09-1,1.39,0,2.08,0Z" style="fill:#a8a9ab"/><path d="M81.29,88.06H56.14a4,4,0,0,1-4-4V51.24a4,4,0,0,1,4-4H81.29a4,4,0,0,1,4,4V84.06A4,4,0,0,1,81.29,88.06ZM56.14,51.24V84.06H81.29V51.24Z" style="fill:#a8a9ab"/></g></symbol></defs><use width="106" height="106" transform="scale(0.66 0.66)" xlink:href="#c"/><g style="mask:url(#b)"><rect x="2.06" y="4.96" width="33.47" height="20.92" style="fill:#74acdf"/><rect x="2.06" y="11.93" width="33.47" height="6.97" style="fill:#fff"/><path d="M18.67,15.47l1.19,2.59s0,.05.05,0,0-.06,0-.06l-1-2.68m0,1c0,.4.23.61.2,1a1.19,1.19,0,0,0,.21.69c0,.14,0,.22,0,.24s.13-.09.1-.28-.18-.25-.14-.69-.18-.53-.13-.92" style="fill:#f6b40e;stroke:#85340a;stroke-width:0.05px"/><path d="M18.66,15.42l.11,2.85s0,.05,0,.05,0-.05,0-.05l.1-2.85m-.41.92c-.16.36,0,.65-.19,1a1.29,1.29,0,0,0-.07.72c0,.14-.13.18-.1.22s.16,0,.2-.23-.06-.3.13-.68,0-.56.24-.9" style="fill:#f6b40e;stroke:#85340a;stroke-width:0.05px"/><path d="M18.67,15.36l-1,2.68s0,.05,0,.06,0,0,0,0l1.19-2.59m-.73.69c-.29.27-.27.6-.54.82a1.24,1.24,0,0,0-.34.64c-.07.13-.19.12-.18.16s.16,0,.27-.13.06-.3.39-.58.25-.5.56-.74" style="fill:#f6b40e;stroke:#85340a;stroke-width:0.05px"/><path d="M18.7,15.31l-1.94,2.1s0,0,0,.06.06,0,.06,0l2.09-1.94m-.94.36c-.37.13-.48.44-.82.55s-.44.36-.55.45-.22,0-.23.09.13.08.3,0,.17-.26.58-.39.42-.37.81-.47" style="fill:#f6b40e;stroke:#85340a;stroke-width:0.05px"/><path d="M19,16.44c0,.38.24.54.19.89.1-.27-.13-.49-.11-.89m-.32-1,.81,1.78-.68-1.84" style="fill:#85340a"/><path d="M18.58,16.43c-.13.36,0,.59-.17.9.19-.22.07-.5.23-.87m.09-1,.07,2,.07-2" style="fill:#85340a"/><path d="M18.21,16.27c-.26.28-.22.55-.5.76.26-.13.25-.43.55-.71m.47-.93-.68,1.84.81-1.78" style="fill:#85340a"/><path d="M17.93,16c-.35.17-.42.43-.75.52.28,0,.39-.3.77-.45m.8-.67L17.41,16.8l1.44-1.33" style="fill:#85340a"/><path d="M18.75,15.28l-2.6,1.19s0,0,0,.06.06,0,.06,0l2.68-1m-1,0c-.4,0-.61.23-1,.2a1.25,1.25,0,0,0-.69.2c-.13.05-.21-.05-.23,0s.08.13.28.1.25-.17.68-.14.53-.17.93-.12" style="fill:#f6b40e;stroke:#85340a;stroke-width:0.05px"/><path d="M18.8,15.27,16,15.38s0,0,0,0,0,0,0,0l2.85.11m-.92-.41c-.36-.17-.65,0-1-.19a1.26,1.26,0,0,0-.71-.07c-.14,0-.18-.13-.22-.1s0,.15.23.2.3-.07.68.13.56,0,.9.24" style="fill:#f6b40e;stroke:#85340a;stroke-width:0.05px"/><path d="M18.86,15.28l-2.68-1s-.05,0-.06,0,0,.06,0,.06l2.6,1.19m-.7-.74c-.27-.28-.59-.27-.82-.54a1.27,1.27,0,0,0-.63-.34c-.13-.06-.12-.19-.16-.17s0,.15.13.27.3.05.58.38.5.25.74.56" style="fill:#f6b40e;stroke:#85340a;stroke-width:0.05px"/><path d="M18.9,15.31l-2.09-1.94s0,0-.06,0,0,.06,0,.06l1.94,2.1m-.36-.95c-.14-.37-.44-.47-.55-.81a1.31,1.31,0,0,0-.45-.56c-.1-.11,0-.22-.09-.22s-.08.13,0,.3.26.16.39.57.37.43.47.81" style="fill:#f6b40e;stroke:#85340a;stroke-width:0.05px"/><path d="M17.78,15.6c-.38,0-.55.23-.89.19.27.09.48-.13.89-.12m1-.32L17,16.17l1.83-.69" style="fill:#85340a"/><path d="M17.79,15.19c-.36-.13-.6,0-.9-.16.22.19.5.06.87.23m1,.08-2,.07,2,.08" style="fill:#85340a"/><path d="M18,14.82c-.28-.25-.55-.22-.76-.49.12.25.43.25.71.54m.93.48L17,14.66l1.78.82" style="fill:#85340a"/><path d="M18.24,14.54c-.16-.34-.42-.41-.51-.75,0,.29.3.4.44.78m.68.79L17.42,14l1.33,1.43" style="fill:#85340a"/><path d="M18.93,15.36l-1.19-2.59s0,0,0,0,0,.06,0,.06l1,2.68m0-1c0-.39-.23-.61-.2-1a1.24,1.24,0,0,0-.21-.69c0-.14.05-.22,0-.24s-.13.09-.1.28.18.26.14.69.18.53.13.92" style="fill:#f6b40e;stroke:#85340a;stroke-width:0.05px"/><path d="M18.94,15.42l-.1-2.86s0-.05,0-.05,0,.05,0,.05l-.11,2.86m.41-.93c.17-.35,0-.65.19-1a1.29,1.29,0,0,0,.07-.72c0-.14.13-.18.1-.21s-.15,0-.2.22.07.3-.13.69,0,.55-.24.9" style="fill:#f6b40e;stroke:#85340a;stroke-width:0.05px"/><path d="M18.93,15.47l1-2.68a0,0,0,0,0,0-.06s-.05,0-.05,0l-1.19,2.59m.73-.69c.29-.27.27-.6.55-.82a1.33,1.33,0,0,0,.34-.64c.06-.12.19-.12.17-.16s-.15,0-.27.13-.05.31-.38.58-.25.5-.57.75" style="fill:#f6b40e;stroke:#85340a;stroke-width:0.05px"/><path d="M18.9,15.52l1.94-2.1s0,0,0-.06-.07,0-.07,0L18.7,15.31m.94-.35c.37-.14.48-.45.82-.56S20.91,14,21,14s.22,0,.22-.08-.13-.09-.3,0-.17.26-.58.4-.42.36-.8.46" style="fill:#f6b40e;stroke:#85340a;stroke-width:0.05px"/><path d="M18.62,14.39c0-.37-.23-.54-.19-.89-.09.28.13.49.12.89m.32,1-.82-1.78.69,1.84" style="fill:#85340a"/><path d="M19,14.4c.12-.35,0-.59.16-.89-.19.21-.07.49-.23.86m-.09,1-.07-2-.07,2" style="fill:#85340a"/><path d="M19.4,14.57c.25-.28.22-.56.49-.77-.26.13-.25.44-.54.71m-.48.93.68-1.84-.81,1.79" style="fill:#85340a"/><path d="M19.68,14.86c.34-.16.41-.43.75-.52-.29,0-.4.31-.78.45m-.79.68L20.19,14l-1.44,1.33" style="fill:#85340a"/><path d="M18.86,15.55l2.59-1.19s.05,0,0-.06-.07,0-.07,0l-2.67,1m1,0c.39,0,.61-.23,1-.19a1.33,1.33,0,0,0,.69-.21c.13-.05.22.05.24,0s-.09-.13-.29-.1-.25.17-.68.14-.53.18-.92.12" style="fill:#f6b40e;stroke:#85340a;stroke-width:0.05px"/><path d="M18.8,15.56l2.85-.11s.06,0,.06,0-.06,0-.06,0l-2.85-.11m.92.42c.36.16.65,0,1,.18a1.29,1.29,0,0,0,.71.08c.15,0,.19.12.22.09s0-.15-.22-.2-.3.07-.69-.13-.56,0-.9-.23" style="fill:#f6b40e;stroke:#85340a;stroke-width:0.05px"/><path d="M18.75,15.55l2.67,1s0,0,.07,0,0-.06,0-.06l-2.59-1.19m.69.74c.27.29.59.27.82.54a1.22,1.22,0,0,0,.63.34c.13.07.12.19.17.18s0-.16-.13-.28-.31-.05-.59-.38-.5-.25-.74-.56" style="fill:#f6b40e;stroke:#85340a;stroke-width:0.05px"/><path d="M18.7,15.52l2.09,1.94s0,0,.07,0,0-.06,0-.06l-1.94-2.1m.36,1c.14.37.45.48.55.81a1.25,1.25,0,0,0,.46.56c.09.11,0,.22.08.22s.09-.13,0-.3-.26-.16-.39-.57-.36-.43-.47-.81" style="fill:#f6b40e;stroke:#85340a;stroke-width:0.05px"/><path d="M19.82,15.24c.38,0,.55-.24.89-.2-.27-.09-.48.13-.88.12m-1,.32,1.78-.81-1.83.68" style="fill:#85340a"/><path d="M19.81,15.64c.36.13.6,0,.9.16-.22-.19-.5-.06-.86-.23m-1.05-.08,2-.07-2-.07" style="fill:#85340a"/><path d="M19.65,16c.28.26.55.22.77.5-.13-.26-.44-.25-.71-.55m-.93-.48,1.83.69-1.78-.82" style="fill:#85340a"/><path d="M19.36,16.29c.16.34.42.42.52.75,0-.29-.31-.4-.45-.77m-.68-.8,1.44,1.33-1.34-1.43" style="fill:#85340a"/><circle cx="18.8" cy="15.42" r="1.16" style="fill:#f6b40e;stroke:#85340a;stroke-width:0.05px"/><path d="M19.2,15.17a.22.22,0,0,0-.2.1.36.36,0,0,0,.42,0,.31.31,0,0,0-.22-.09Zm0,0c.07,0,.15,0,.16.07a.26.26,0,0,1-.33,0,.2.2,0,0,1,.17-.08Z" style="fill:#843511"/><path d="M19.21,15.11a.24.24,0,0,0-.19.07.26.26,0,0,1-.09.05,0,0,0,0,0,0,0,.39.39,0,0,0,.11-.08.25.25,0,0,1,.16,0c.16,0,.25.13.27.12a.29.29,0,0,0-.27-.15Z" style="fill:#85340a"/><path d="M19.53,15.17a.46.46,0,0,0-.6-.08.34.34,0,0,0-.07.15.42.42,0,0,0,.09.33l0,0a.69.69,0,0,1-.08-.41l0-.1a.43.43,0,0,1,.66.09Z" style="fill:#85340a"/><circle cx="19.19" cy="15.25" r="0.08" style="fill:#85340a"/><path d="M19.43,15.31a.34.34,0,0,1-.4,0c-.09,0-.09-.07-.07-.07l.11.05c.07,0,.18,0,.36,0Z" style="fill:#85340a"/><path d="M18.62,15.58s-.06,0-.06.08a.08.08,0,0,0,.08.08.07.07,0,0,0,.06,0,.16.16,0,0,0,.1,0h0a.14.14,0,0,0,.1,0,.08.08,0,0,0,.06,0,.08.08,0,0,0,.08-.08s0-.08-.06-.08,0,0,0,.05a.05.05,0,0,1-.1,0,.13.13,0,0,1-.11.07.11.11,0,0,1-.11-.07.06.06,0,0,1-.06,0,0,0,0,0,1-.05,0s0-.05,0-.05Z" style="fill:#85340a"/><path d="M18.71,15.81c-.09,0-.12.09-.2.14l.14-.09c.06,0,.11,0,.15,0h0s.09,0,.15,0l.15.09c-.08,0-.12-.14-.21-.14l-.09,0h0Z" style="fill:#85340a"/><path d="M18.68,15.92l-.15,0c.16,0,.2,0,.27,0h0c.07,0,.11-.06.27,0a.53.53,0,0,0-.27,0h-.12Z" style="fill:#85340a"/><path d="M18.54,16h0c.18,0,.09.13.29.13h0c.2,0,.11-.11.3-.13-.2,0-.14.1-.3.1h0c-.15,0-.1-.1-.26-.1Z" style="fill:#85340a"/><path d="M19,16.24a.16.16,0,0,0-.32,0,.16.16,0,0,1,.32,0Z" style="fill:#85340a"/><path d="M18.08,15.17a.35.35,0,0,1,.67.07.42.42,0,0,1-.09.33l0,0a.68.68,0,0,0,.07-.41l0-.1a.43.43,0,0,0-.66.09Z" style="fill:#85340a"/><path d="M18.4,15.11a.27.27,0,0,1,.2.07c0,.05.08,0,.09.05s0,0,0,0a.39.39,0,0,1-.11-.08.24.24,0,0,0-.16,0c-.16,0-.25.13-.27.12a.29.29,0,0,1,.27-.15Z" style="fill:#85340a"/><path d="M18.39,15.17a.25.25,0,0,0-.2.1.38.38,0,0,0,.43,0,.33.33,0,0,0-.23-.09Zm0,0a.15.15,0,0,1,.16.07.24.24,0,0,1-.32,0,.18.18,0,0,1,.16-.08Z" style="fill:#843511"/><circle cx="18.41" cy="15.25" r="0.08" style="fill:#85340a"/><path d="M18.19,15.31a.33.33,0,0,0,.39,0c.09,0,.09-.07.07-.07l-.11.05a.41.41,0,0,1-.35,0Z" style="fill:#85340a"/></g></svg>